<svg width="22" height="24" viewBox="0 0 22 24" fill="none" xmlns="http://www.w3.org/2000/svg">
<path d="M10.973 2.69647C10.4769 2.69647 10.0742 2.2938 10.0742 1.79765V0.898823C10.0742 0.402673 10.4769 0 10.973 0C11.4692 0 11.8719 0.402673 11.8719 0.898823V1.79765C11.8719 2.2938 11.4692 2.69647 10.973 2.69647Z" fill="#595959"/>
<path d="M18.8178 10.541C18.3217 10.541 17.919 10.1383 17.919 9.64216C17.919 5.98934 14.9529 2.87671 11.3072 2.70414C7.65712 2.53561 4.40293 5.34668 4.05913 8.97838C4.03845 9.19544 4.02812 9.41835 4.02812 9.64216C4.02812 10.1383 3.62544 10.541 3.12929 10.541C2.63314 10.541 2.23047 10.1383 2.23047 9.64216C2.23047 9.36172 2.2435 9.08129 2.26957 8.80895C2.70235 4.23574 6.79964 0.692574 11.3922 0.908741C15.9825 1.12581 19.7166 5.04378 19.7166 9.64216C19.7166 10.1388 19.314 10.541 18.8178 10.541Z" fill="#595959"/>
<path d="M20.5021 16.6714C20.2805 16.6714 20.0581 16.5896 19.8841 16.4256C18.6348 15.2427 17.918 13.5772 17.918 11.8564C17.918 11.3603 18.3206 10.9576 18.8168 10.9576C19.3129 10.9576 19.7156 11.3603 19.7156 11.8564C19.7156 13.0855 20.2275 14.2756 21.12 15.12C21.4805 15.4611 21.4962 16.0301 21.1551 16.391C20.9785 16.577 20.7403 16.6714 20.5021 16.6714Z" fill="#595959"/>
<path d="M1.44576 16.6714C1.20713 16.6714 0.969386 16.5775 0.792767 16.3905C0.451663 16.0301 0.467393 15.4611 0.827821 15.12C1.72035 14.2756 2.23223 13.086 2.23223 11.8564C2.23223 11.3603 2.63491 10.9576 3.13106 10.9576C3.62721 10.9576 4.02988 11.3603 4.02988 11.8564C4.02988 13.5781 3.31307 15.2436 2.0637 16.4256C1.88933 16.5896 1.66732 16.6714 1.44576 16.6714Z" fill="#595959"/>
<path d="M10.9746 23.3694C8.53877 23.3694 6.48047 21.3111 6.48047 18.8753C6.48047 18.3792 6.88314 17.9765 7.37929 17.9765C7.87544 17.9765 8.27812 18.3792 8.27812 18.8753C8.27812 20.3368 9.5131 21.5718 10.9746 21.5718C12.4361 21.5718 13.6711 20.3368 13.6711 18.8753C13.6711 18.3792 14.0737 17.9765 14.5699 17.9765C15.066 17.9765 15.4687 18.3792 15.4687 18.8753C15.4687 21.3111 13.4104 23.3694 10.9746 23.3694Z" fill="#595959"/>
<path d="M2.68032 19.7742C1.5851 19.7742 0.610779 19.1045 0.19777 18.0682C-0.215689 17.0305 0.0310381 15.8733 0.826497 15.1201C1.18692 14.7785 1.75543 14.7942 2.09743 15.1547C2.43854 15.5151 2.42326 16.084 2.06283 16.4256C1.66914 16.7986 1.81385 17.2682 1.86778 17.4031C1.92126 17.537 2.13833 17.9765 2.68032 17.9765C3.17647 17.9765 3.57914 18.3792 3.57914 18.8753C3.57914 19.3715 3.17692 19.7742 2.68032 19.7742Z" fill="#595959"/>
<path d="M19.2699 19.7741C18.7738 19.7741 18.3711 19.3714 18.3711 18.8753C18.3711 18.3791 18.7738 17.9765 19.2699 17.9765C19.8124 17.9765 20.0299 17.5351 20.0838 17.3999C20.1373 17.2655 20.2815 16.7977 19.8879 16.4251C19.5274 16.0836 19.5117 15.5151 19.8528 15.1542C20.1944 14.7937 20.7629 14.778 21.1237 15.1191C21.9192 15.8723 22.1664 17.0287 21.7538 18.0646C21.3403 19.1031 20.3651 19.7741 19.2699 19.7741Z" fill="#595959"/>
<path d="M3.1293 12.7547C2.63314 12.7547 2.23047 12.3521 2.23047 11.8559V9.64211C2.23047 9.14596 2.63314 8.74329 3.1293 8.74329C3.62545 8.74329 4.02812 9.14596 4.02812 9.64211V11.8559C4.02812 12.3521 3.6259 12.7547 3.1293 12.7547Z" fill="#595959"/>
<path d="M18.8168 12.7547C18.3206 12.7547 17.918 12.3521 17.918 11.8559V9.64211C17.918 9.14596 18.3206 8.74329 18.8168 8.74329C19.3129 8.74329 19.7156 9.14596 19.7156 9.64211V11.8559C19.7156 12.3521 19.3129 12.7547 18.8168 12.7547Z" fill="#595959"/>
<path d="M19.2679 19.7741H2.68007C2.18392 19.7741 1.78125 19.3715 1.78125 18.8753C1.78125 18.3792 2.18392 17.9765 2.68007 17.9765H19.2674C19.7636 17.9765 20.1662 18.3792 20.1662 18.8753C20.1662 19.3715 19.764 19.7741 19.2679 19.7741Z" fill="#595959"/>
</svg>
